<svg width="13" height="13" viewBox="0 0 13 13" fill="none" xmlns="http://www.w3.org/2000/svg">
<path fill-rule="evenodd" clip-rule="evenodd" d="M9.19866 10.9059C9.11917 10.9059 9.03918 10.8873 8.96573 10.8491L6.40051 9.50887L3.8358 10.8491C3.66575 10.9371 3.4605 10.922 3.30655 10.8093C3.1516 10.6966 3.07463 10.506 3.10733 10.3173L3.59582 7.48597L1.52312 5.48119C1.38528 5.34787 1.33547 5.14764 1.39433 4.96452C1.45319 4.78241 1.61066 4.64909 1.80082 4.62192L4.6684 4.20537L5.95025 1.62657C6.1203 1.28447 6.68123 1.28447 6.85127 1.62657L8.13313 4.20537L11.0007 4.62192C11.1909 4.64909 11.3483 4.78241 11.4072 4.96452C11.4661 5.14764 11.4163 5.34787 11.2784 5.48119L9.2057 7.48597L9.6942 10.3173C9.7269 10.506 9.64942 10.6966 9.49498 10.8093C9.40744 10.8737 9.3033 10.9059 9.19866 10.9059Z" fill="black"/>
<mask id="mask0" mask-type="alpha" maskUnits="userSpaceOnUse" x="1" y="1" width="11" height="10">
<path fill-rule="evenodd" clip-rule="evenodd" d="M9.19866 10.9059C9.11917 10.9059 9.03918 10.8873 8.96573 10.8491L6.40051 9.50887L3.8358 10.8491C3.66575 10.9371 3.4605 10.922 3.30655 10.8093C3.1516 10.6966 3.07463 10.506 3.10733 10.3173L3.59582 7.48597L1.52312 5.48119C1.38528 5.34787 1.33547 5.14764 1.39433 4.96452C1.45319 4.78241 1.61066 4.64909 1.80082 4.62192L4.6684 4.20537L5.95025 1.62657C6.1203 1.28447 6.68123 1.28447 6.85127 1.62657L8.13313 4.20537L11.0007 4.62192C11.1909 4.64909 11.3483 4.78241 11.4072 4.96452C11.4661 5.14764 11.4163 5.34787 11.2784 5.48119L9.2057 7.48597L9.6942 10.3173C9.7269 10.506 9.64942 10.6966 9.49498 10.8093C9.40744 10.8737 9.3033 10.9059 9.19866 10.9059Z" fill="white"/>
</mask>
<g mask="url(#mask0)">
<rect x="0.363708" y="0.340576" width="12.074" height="12.074" fill="#EBEBEB"/>
</g>
</svg>
