<svg width="13" height="13" viewBox="0 0 13 13" fill="none" xmlns="http://www.w3.org/2000/svg">
<path fill-rule="evenodd" clip-rule="evenodd" d="M9.10003 10.9059C9.02054 10.9059 8.94055 10.8873 8.8671 10.8491L6.30188 9.50887L3.73716 10.8491C3.56712 10.9371 3.36186 10.922 3.20792 10.8093C3.05297 10.6966 2.976 10.506 3.0087 10.3173L3.49719 7.48597L1.42449 5.48119C1.28665 5.34787 1.23684 5.14764 1.2957 4.96452C1.35456 4.78241 1.51203 4.64909 1.70219 4.62192L4.56977 4.20537L5.85162 1.62657C6.02166 1.28447 6.5826 1.28447 6.75264 1.62657L8.0345 4.20537L10.9021 4.62192C11.0922 4.64909 11.2497 4.78241 11.3086 4.96452C11.3674 5.14764 11.3176 5.34787 11.1798 5.48119L9.10707 7.48597L9.59556 10.3173C9.62826 10.506 9.55079 10.6966 9.39634 10.8093C9.30881 10.8737 9.20467 10.9059 9.10003 10.9059Z" fill="black"/>
<mask id="mask0" mask-type="alpha" maskUnits="userSpaceOnUse" x="1" y="1" width="11" height="10">
<path fill-rule="evenodd" clip-rule="evenodd" d="M9.10003 10.9059C9.02054 10.9059 8.94055 10.8873 8.8671 10.8491L6.30188 9.50887L3.73716 10.8491C3.56712 10.9371 3.36186 10.922 3.20792 10.8093C3.05297 10.6966 2.976 10.506 3.0087 10.3173L3.49719 7.48597L1.42449 5.48119C1.28665 5.34787 1.23684 5.14764 1.2957 4.96452C1.35456 4.78241 1.51203 4.64909 1.70219 4.62192L4.56977 4.20537L5.85162 1.62657C6.02166 1.28447 6.5826 1.28447 6.75264 1.62657L8.0345 4.20537L10.9021 4.62192C11.0922 4.64909 11.2497 4.78241 11.3086 4.96452C11.3674 5.14764 11.3176 5.34787 11.1798 5.48119L9.10707 7.48597L9.59556 10.3173C9.62826 10.506 9.55079 10.6966 9.39634 10.8093C9.30881 10.8737 9.20467 10.9059 9.10003 10.9059Z" fill="white"/>
</mask>
<g mask="url(#mask0)">
<rect x="0.265015" y="0.340576" width="12.074" height="12.074" fill="#00AC4E"/>
</g>
</svg>
